<?xml version="1.0" encoding="UTF-8" standalone="no"?>
<!DOCTYPE svg PUBLIC "-//W3C//DTD SVG 1.1//EN"
 "http://www.w3.org/Graphics/SVG/1.1/DTD/svg11.dtd">
<!-- Generated by graphviz version 2.43.0 (0)
 -->
<!-- Title: %3 Pages: 1 -->
<svg width="125pt" height="212pt"
 viewBox="0.00 0.00 125.04 212.17" xmlns="http://www.w3.org/2000/svg" xmlns:xlink="http://www.w3.org/1999/xlink">
<g id="graph0" class="graph" transform="scale(1 1) rotate(0) translate(4 208.17)">
<title>%3</title>
<polygon fill="white" stroke="transparent" points="-4,4 -4,-208.17 121.04,-208.17 121.04,4 -4,4"/>
<!-- A -->
<g id="node1" class="node">
<title>A</title>
<ellipse fill="none" stroke="black" cx="43.02" cy="-192.15" rx="31.64" ry="12.04"/>
<text text-anchor="start" x="21.52" y="-188.45" font-family="Times,serif" font-size="14.00">x2 ≤ 4</text>
</g>
<!-- L -->
<g id="node2" class="node">
<title>L</title>
<ellipse fill="none" stroke="black" cx="12.02" cy="-132.1" rx="12.04" ry="12.04"/>
<text text-anchor="middle" x="12.02" y="-128.4" font-family="Times,serif" font-size="14.00"> </text>
</g>
<!-- A&#45;&gt;L -->
<g id="edge1" class="edge">
<title>A&#45;&gt;L</title>
<path fill="none" stroke="black" d="M37.19,-180.23C32.97,-172.33 27.16,-161.46 22.19,-152.15"/>
<polygon fill="black" stroke="black" points="25.21,-150.37 17.41,-143.2 19.03,-153.67 25.21,-150.37"/>
</g>
<!-- R -->
<g id="node3" class="node">
<title>R</title>
<ellipse fill="none" stroke="black" cx="74.02" cy="-132.1" rx="31.64" ry="12.04"/>
<text text-anchor="start" x="52.52" y="-128.4" font-family="Times,serif" font-size="14.00">x1 ≤ 4</text>
</g>
<!-- A&#45;&gt;R -->
<g id="edge2" class="edge">
<title>A&#45;&gt;R</title>
<path fill="none" stroke="black" d="M48.85,-180.23C52.97,-172.53 58.59,-161.99 63.48,-152.84"/>
<polygon fill="black" stroke="black" points="66.59,-154.44 68.22,-143.97 60.42,-151.14 66.59,-154.44"/>
</g>
<!-- RL -->
<g id="node4" class="node">
<title>RL</title>
<ellipse fill="none" stroke="black" cx="43.02" cy="-72.06" rx="31.64" ry="12.04"/>
<text text-anchor="start" x="21.52" y="-68.36" font-family="Times,serif" font-size="14.00">x2 ≤ 2</text>
</g>
<!-- R&#45;&gt;RL -->
<g id="edge3" class="edge">
<title>R&#45;&gt;RL</title>
<path fill="none" stroke="black" d="M68.19,-120.19C64.08,-112.49 58.45,-101.95 53.56,-92.8"/>
<polygon fill="black" stroke="black" points="56.62,-91.1 48.83,-83.93 50.45,-94.4 56.62,-91.1"/>
</g>
<!-- RR -->
<g id="node5" class="node">
<title>RR</title>
<ellipse fill="black" stroke="black" cx="105.02" cy="-72.06" rx="12.04" ry="12.04"/>
<text text-anchor="middle" x="105.02" y="-68.36" font-family="Times,serif" font-size="14.00"> </text>
</g>
<!-- R&#45;&gt;RR -->
<g id="edge4" class="edge">
<title>R&#45;&gt;RR</title>
<path fill="none" stroke="black" d="M79.85,-120.19C84.07,-112.29 89.88,-101.42 94.85,-92.1"/>
<polygon fill="black" stroke="black" points="98.01,-93.62 99.63,-83.15 91.83,-90.33 98.01,-93.62"/>
</g>
<!-- RLL -->
<g id="node6" class="node">
<title>RLL</title>
<ellipse fill="black" stroke="black" cx="22.02" cy="-12.02" rx="12.04" ry="12.04"/>
<text text-anchor="middle" x="22.02" y="-8.32" font-family="Times,serif" font-size="14.00"> </text>
</g>
<!-- RL&#45;&gt;RLL -->
<g id="edge5" class="edge">
<title>RL&#45;&gt;RLL</title>
<path fill="none" stroke="black" d="M38.97,-59.87C36.26,-52.39 32.62,-42.33 29.41,-33.44"/>
<polygon fill="black" stroke="black" points="32.61,-32 25.92,-23.79 26.03,-34.38 32.61,-32"/>
</g>
<!-- RLR -->
<g id="node7" class="node">
<title>RLR</title>
<ellipse fill="none" stroke="black" cx="64.02" cy="-12.02" rx="12.04" ry="12.04"/>
<text text-anchor="middle" x="64.02" y="-8.32" font-family="Times,serif" font-size="14.00"> </text>
</g>
<!-- RL&#45;&gt;RLR -->
<g id="edge6" class="edge">
<title>RL&#45;&gt;RLR</title>
<path fill="none" stroke="black" d="M47.07,-59.87C49.78,-52.39 53.42,-42.33 56.63,-33.44"/>
<polygon fill="black" stroke="black" points="60.02,-34.38 60.13,-23.79 53.43,-32 60.02,-34.38"/>
</g>
</g>
</svg>
